<?xml version="1.0" encoding="utf-8"?>
<!-- Generator: Adobe Illustrator 21.0.0, SVG Export Plug-In . SVG Version: 6.00 Build 0)  -->
<svg version="1.1" id="レイヤー_1" xmlns="http://www.w3.org/2000/svg" xmlns:xlink="http://www.w3.org/1999/xlink" x="0px"
	 y="0px" viewBox="0 0 627 153.9" style="enable-background:new 0 0 627 153.9;" xml:space="preserve">
<style type="text/css">
	.st0{fill:#FFFFFF;}
	.st1{fill:#C74431;}
</style>
<title>アセット 1</title>
<g id="レイヤー_2">
	<g id="Layer_1">
		<path class="st0" d="M306.8,107.6c-19.9,0-33.8-12.8-33.9-31c0-19.2,13.6-32.1,33.9-32.1c6.5,0.1,12.9,1.9,18.5,5.3
			c1.1,0.5,1.9,1.5,2.2,2.7c0.2,1.2-0.1,2.5-0.9,3.5l-0.8,1.1c-0.7,1.1-1.9,1.9-3.3,1.9c-0.9,0-1.8-0.3-2.6-0.7
			c-3.9-2.2-8.3-3.3-12.7-3.4c-13.3,0-22.7,8.7-22.8,21.2c0.1,12.4,9.5,21.1,22.8,21.1c4.4,0,8.8-1.2,12.6-3.3
			c0.8-0.4,1.7-0.7,2.6-0.7c1.4,0,2.7,0.8,3.4,2l0.7,1c0.7,0.9,0.9,2.1,0.7,3.2c-0.2,1-1,2.5-3.5,3.8
			C318.5,106,312.7,107.5,306.8,107.6z"/>
		<path class="st0" d="M363.8,107.6c-17.5,0-30.2-13.2-30.2-31.5s12.7-31.6,30.2-31.6c9,0,16.3,3.5,21.6,10v-4.3
			c-0.2-2.2,1.5-4.2,3.7-4.4c0.2,0,0.4,0,0.6,0h2.7c2.3-0.2,4.2,1.5,4.4,3.8c0,0.2,0,0.4,0,0.6v51.8c0.2,2.3-1.5,4.2-3.8,4.4
			c-0.2,0-0.4,0-0.6,0h-2.7c-2.2,0.2-4.1-1.5-4.3-3.7c0-0.2,0-0.5,0-0.7v-4.2C380.2,104.2,372.9,107.6,363.8,107.6z M364.8,54.9
			c-11.7,0-19.8,8.7-19.8,21.2s8.2,21.1,19.9,21.1c12.1,0,20.6-8.7,20.6-21.1S377,54.9,364.8,54.9L364.8,54.9z"/>
		<path class="st0" d="M417.8,106.3c-2.3,0.2-4.2-1.5-4.4-3.8c0-0.2,0-0.4,0-0.6V24.1c-0.2-2.3,1.5-4.2,3.8-4.4c0.2,0,0.4,0,0.6,0
			h2.7c2.3-0.1,4.2,1.7,4.3,3.9c0,0.2,0,0.3,0,0.5v77.8c0.2,2.3-1.5,4.2-3.8,4.4c-0.2,0-0.3,0-0.5,0H417.8z"/>
		<path class="st0" d="M446.2,106.3c-2.3,0.2-4.2-1.5-4.4-3.8c0-0.2,0-0.4,0-0.6V24.1c-0.2-2.3,1.5-4.2,3.8-4.4c0.2,0,0.4,0,0.6,0
			h2.7c2.3-0.1,4.2,1.7,4.3,3.9c0,0.2,0,0.3,0,0.5v77.8c0.2,2.3-1.5,4.2-3.8,4.4c-0.2,0-0.3,0-0.5,0H446.2z"/>
		<path class="st0" d="M474.6,106.3c-2.3,0.2-4.2-1.5-4.4-3.8c0-0.2,0-0.4,0-0.6V50.1c-0.1-2.3,1.6-4.3,3.9-4.4c0.2,0,0.3,0,0.5,0
			h2.7c2.3-0.1,4.2,1.7,4.3,3.9c0,0.2,0,0.3,0,0.5v51.8c0.2,2.3-1.5,4.2-3.8,4.4c-0.2,0-0.3,0-0.5,0H474.6z M475.9,35.4
			c-4.2,0.1-7.6-3.3-7.7-7.4c0-0.1,0-0.2,0-0.3c-0.2-4.1,3-7.7,7.1-7.9c0.2,0,0.3,0,0.5,0c4.2,0,7.6,3.3,7.7,7.5c0,0.1,0,0.2,0,0.3
			c0.1,4.2-3.3,7.7-7.5,7.8C476,35.4,475.9,35.4,475.9,35.4L475.9,35.4z"/>
		<path class="st0" d="M545.8,106.3c-2.3,0.2-4.2-1.5-4.4-3.8c0-0.2,0-0.4,0-0.6V72.1c0-15-8.4-17.2-13.4-17.2
			c-6.3,0-18.3,4.6-18.4,22v25c0.2,2.3-1.5,4.2-3.8,4.4c-0.2,0-0.4,0-0.6,0h-2.7c-2.3,0.1-4.2-1.7-4.3-3.9c0-0.2,0-0.3,0-0.5V50.1
			c-0.1-2.3,1.6-4.3,3.9-4.4c0.1,0,0.2,0,0.4,0h2.7c2.3-0.2,4.2,1.5,4.4,3.8c0,0.2,0,0.4,0,0.6V54c4-6,10.9-9.5,19-9.5
			c7.3,0,24.3,2.7,24.3,27.7v29.8c0.2,2.3-1.5,4.2-3.8,4.4c-0.2,0-0.4,0-0.6,0H545.8z"/>
		<path class="st0" d="M595.7,133.6c-9.3,0-16.6-2.1-23.2-6.5c-2-1.2-2.6-3.9-1.4-5.9c0,0,0,0,0-0.1l0.8-1.4
			c0.5-1.4,1.8-2.3,3.2-2.3c1,0,2,0.4,2.8,1c5.1,3.3,10.7,4.9,17.7,4.9c12.3,0,19.9-7.6,19.9-19.7v-6c-5.2,6.5-12.5,9.9-21.6,9.9
			c-17.5,0-30.2-13.2-30.2-31.5s12.7-31.6,30.2-31.6c9,0,16.3,3.5,21.6,10v-4.3c-0.2-2.2,1.5-4.2,3.7-4.4c0.2,0,0.4,0,0.6,0h2.7
			c2.3-0.2,4.2,1.6,4.4,3.8c0,0.2,0,0.4,0,0.6v54.2C627,122.1,614.7,133.6,595.7,133.6z M595,54.9c-11.7,0-19.8,8.7-19.8,21.2
			s8.2,21.1,19.9,21.1c12.2,0,20.6-8.7,20.6-21.1S607.2,54.9,595,54.9z"/>
		<path class="st1" d="M135.1,127.2l0.9-1.1l0.5-0.6c0.5-0.6,0.9-1.1,1.4-1.7l0,0c8.5-11.1,13.8-24.3,15.4-38.3
			c0.1-0.4-0.1-0.8-0.3-1.1c-0.3-0.3-0.7-0.5-1.2-0.5c-0.2,0-0.4,0-0.5,0.1l-11.9,4.3c-1.3,0.5-2.3,1.5-2.7,2.9
			c-0.9,3.8-2.2,7.6-3.8,11.2v0.1c-2.7,5.9-6.3,11.3-10.6,16.1c-7.4,8-16.8,13.9-27.2,17.1c-5.3,1.6-10.8,2.4-16.3,2.3
			c-12.1-0.1-23.9-3.5-34.2-9.8c-13.3-8.5-23.4-21.7-27.2-36.5l-0.1-0.3c-0.1-0.6-0.3-1.2-0.4-1.8l0-0.3c-1.3-6.5-1.6-13.2-0.8-19.8
			L16,69c0-0.3,0.1-0.5,0.1-0.8s0.1-0.7,0.1-1V67c0.8-5.1,2.3-10.1,4.4-14.8c0.2-0.4,0.4-0.8,0.5-1.2l0.3-0.7l0.2-0.4
			c1.4-2.8,2.9-5.5,4.7-8c13.9-20,38.3-29.9,62.2-25.2c13,2.6,24.8,9.2,33.7,19c0.6,0.6,1.3,1,2.1,1.1c0.5,0.1,1,0.1,1.6,0l12.4-2
			c0.6-0.1,1-0.5,1.3-1c0.2-0.5,0.2-1-0.1-1.4c-2.8-4-6-7.6-9.5-11c-0.1-0.1-0.1-0.1-0.2-0.2C99.3-8,50.8-6.9,21.6,23.6
			c-4.7,4.9-8.7,10.4-12,16.4l-0.2,0.3l-0.4,0.7c-19.9,37.3-5.9,83.8,31.5,103.7c6.8,3.6,14.1,6.2,21.6,7.7
			c26.3,5.1,53.4-3.9,71.5-23.6l0.4-0.4L135.1,127.2z"/>
		<path class="st0" d="M171.4,111.4c12.2,8,27.7,9,40.8,2.5c17.9-8.8,27.4-32.7,20.3-51.4c-8-21.3-31.7-32.1-53-24.1
			c-13.6,5.1-23.6,17-26.1,31.4c-0.3,1.7-1.5,3.2-3.2,3.9l-8.2,3.5c-1.8,0.8-3.9,0-4.7-1.8c-0.2-0.5-0.3-1.1-0.3-1.6
			c1.7-31.4,28.6-55.5,60.1-53.8s55.5,28.6,53.8,60.1c-1.7,31.4-28.6,55.5-60.1,53.8c-12.4-0.7-24.2-5.4-33.7-13.4
			c-1.5-1.3-1.6-3.5-0.3-4.9c0.3-0.4,0.8-0.7,1.3-0.9l8.3-3.6C167.9,110.2,169.8,110.4,171.4,111.4z"/>
		
			<ellipse transform="matrix(9.306565e-02 -0.9957 0.9957 9.306565e-02 99.2635 262.9264)" class="st0" cx="194" cy="77" rx="20.2" ry="20.2"/>
		
			<ellipse transform="matrix(0.1162 -0.9932 0.9932 0.1162 -8.828 144.6545)" class="st1" cx="76.9" cy="77.3" rx="20.2" ry="20.2"/>
	</g>
</g>
</svg>
